<svg version="1.1" preserveAspectRatio="none" xmlns="http://www.w3.org/2000/svg" width="500" height="500" viewBox="0 0 500 500"><rect width="100%" height="100%" fill="#6F0000" fill-opacity="1"/><svg viewBox="493.2828 427.7055 382.0165 97" width="333" height="84.55393942408246" x="83.5px" y="207.723px" xmlns="http://www.w3.org/2000/svg" xmlns:xlink="http://www.w3.org/1999/xlink" preserveAspectRatio="none"><defs></defs><style>.companyName {fill:#FFDAFE;fill-opacity:1;}.icon3-str {stroke:#B22D2D;stroke-opacity:1;}.text {fill:#FFDAFE;fill-opacity:1;}</style><g opacity="1" transform="rotate(0 590.696 497.7055)">
<svg width="187.1901" height="27" x="590.696" y="497.7055" version="1.1" preserveAspectRatio="none" viewBox="6.4453 -29.5508 288 41.543">
  <g transform="matrix(1 0 0 1 0 0)" class="text"><path id="id-6izo4zJp21" d="M10.41-6.21L10.41-6.21L10.31-5.80Q10.31-5.68 10.42-5.59Q10.53-5.49 10.68-5.49Q10.84-5.49 10.94-5.64L10.94-5.64Q13.85-9.51 15.76-12.45Q17.68-15.39 18.56-16.78Q19.45-18.16 19.98-18.98L19.98-18.98Q21.39-21.13 22.77-22.83L22.77-22.83Q17.50-21.50 14.51-21.50Q11.52-21.50 10.21-21.88Q8.91-22.27 8.50-22.74Q8.09-23.22 8.09-23.72Q8.09-24.22 8.13-24.69L8.13-24.69Q8.20-25.66 9.31-26.29Q10.41-26.91 11.13-26.91Q11.86-26.91 11.86-26.70Q11.86-26.48 11.53-26.12Q11.21-25.76 11.21-25.63L11.21-25.63Q11.21-25 15.72-25Q20.23-25 26.09-26.19L26.09-26.19Q29.45-28.93 31.89-28.93L31.89-28.93Q33.52-28.93 34.04-28.01L34.04-28.01Q34.39-27.46 34.39-26.91Q34.39-26.37 33.76-25.82Q33.13-25.27 32.05-24.88L32.05-24.88Q30.10-24.18 27.44-23.77L27.44-23.77Q26.33-22.34 24.29-19.34Q22.25-16.33 21.50-15.27Q20.76-14.22 19.11-11.52Q17.46-8.83 16.25-6.87Q15.04-4.90 13.67-2.99L13.67-2.99Q10.88 0.96 8.69 0.96L8.69 0.96Q7.77 0.96 7.11 0.47Q6.45-0.02 6.45-1.12Q6.45-2.23 7.67-3.88Q8.89-5.53 9.45-6.00Q10.02-6.46 10.21-6.46Q10.41-6.46 10.41-6.21Z M39.19-14.84L39.19-14.84Q40.67-14.84 40.67-13.83L40.67-13.83Q40.67-13.28 40.42-13.03Q40.17-12.77 39.34-11.34Q38.51-9.90 37.50-7.67Q36.49-5.43 36.20-3.85L36.20-3.85Q36.14-3.65 36.14-3.30L36.14-3.30Q36.14-2.23 36.73-2.23Q37.31-2.23 38.11-2.78Q38.92-3.34 39.54-3.97Q40.17-4.61 40.76-5.27Q41.36-5.94 41.47-6.04Q41.59-6.13 41.83-6.13L41.83-6.13Q42.20-6.13 42.27-5.57Q42.35-5 42.35-4.39Q42.35-3.79 42.24-3.55L42.24-3.55Q41.67-2.44 39.75-0.88Q37.82 0.68 36.25 0.68Q34.68 0.68 33.94-0.27Q33.19-1.23 33.19-2.39Q33.19-3.55 33.58-4.43L33.58-4.43Q31.96-2.32 29.86-0.86Q27.76 0.61 26.44 0.61Q25.11 0.61 24.27-0.20L24.27-0.20Q23.19-1.19 23.19-2.96Q23.19-4.73 23.98-6.51Q24.77-8.30 26.06-9.78Q27.35-11.25 28.90-12.46L28.90-12.46Q32.14-15 34.87-15L34.87-15Q35.93-15 36.59-14.65Q37.26-14.30 37.43-13.77L37.43-13.77Q37.90-14.47 38.22-14.66Q38.54-14.84 39.19-14.84ZM36.59-12.68L36.59-12.68Q33.25-12.68 29.68-8.96L29.68-8.96Q28.41-7.64 27.34-5.78Q26.28-3.93 26.28-3.24Q26.28-2.56 26.67-2.56L26.67-2.56Q27.22-2.56 29.72-4.72Q32.22-6.88 33.04-7.89L33.04-7.89Q33.94-9.02 36.59-12.68Z M43.12-3.91L43.12-3.91L43.10-3.59Q43.10-3.11 43.48-2.75Q43.85-2.40 44.16-2.40L44.16-2.40Q46.50-2.40 48.31-3.11Q50.12-3.81 50.12-4.51L50.12-4.51Q50.12-4.84 49.46-5.09Q48.81-5.33 47.26-5.69Q45.70-6.05 45.00-6.26Q44.30-6.46 43.89-6.64Q43.48-6.82 43.05-7.13L43.05-7.13Q42.13-7.77 42.13-9.05Q42.13-10.33 43.08-11.59Q44.02-12.85 45.45-13.75Q46.87-14.65 48.51-15.33L48.51-15.33Q51.76-16.68 53.96-16.68L53.96-16.68Q56.13-16.68 56.64-15.74L56.64-15.74Q56.80-15.41 56.80-15L56.80-15L56.80-14.86Q56.80-13.83 56.36-13.24Q55.92-12.66 54.97-12.19Q54.02-11.72 53.47-11.72Q52.91-11.72 52.76-11.80Q52.62-11.88 52.52-12.00Q52.42-12.13 52.27-12.19Q52.13-12.25 52.13-12.48Q52.13-12.71 52.32-12.96Q52.52-13.20 52.60-13.48L52.60-13.48Q51.31-13.42 49.90-12.88Q48.50-12.34 47.49-11.68Q46.48-11.02 45.82-10.41Q45.16-9.80 45.16-9.52Q45.16-9.24 46.05-9.06L46.05-9.06Q50.10-8.26 51.37-7.68Q52.64-7.09 53.12-6.35Q53.61-5.61 53.61-5L53.61-5Q53.61-3.75 52.62-2.64Q51.62-1.52 50.16-0.82L50.16-0.82Q47.01 0.72 44.68 0.72Q42.34 0.72 41.45 0.01Q40.57-0.70 40.57-1.68Q40.57-2.66 41.06-3.49Q41.56-4.32 42.34-4.32Q43.12-4.32 43.12-3.91Z M68.60-25.04L69.52-25.16L70.32-24.96Q70.50-24.96 70.63-24.79Q70.77-24.61 70.77-24.45Q70.77-24.30 70.36-23.61Q69.95-22.93 69.39-22.06Q68.84-21.19 68.80-21.11L68.80-21.11Q70.32-21.23 70.96-21.23Q71.59-21.23 71.82-21.14Q72.06-21.05 72.36-20.65Q72.66-20.25 72.92-20.05Q73.17-19.84 73.17-19.43Q73.17-19.02 72.67-18.74Q72.18-18.46 71.61-18.40L71.61-18.40Q67.08-17.95 66.61-17.93L66.61-17.93Q65.03-15.51 62.19-10.38Q59.34-5.25 59.17-3.96L59.17-3.96Q59.09-3.38 59.09-3.01L59.09-3.01Q59.09-2.25 59.89-2.25Q60.69-2.25 61.67-2.86Q62.65-3.48 63.47-4.20L63.47-4.20Q65.65-6.15 65.81-6.15L65.81-6.15Q66.32-6.15 66.32-4.39L66.32-4.39Q66.32-3.44 65.44-2.68L65.44-2.68Q63.47-0.98 62.12-0.12Q60.77 0.74 59.42 0.74L59.42 0.74Q59.13 0.74 58.88 0.68L58.88 0.68Q57.31 0.39 56.58-0.46Q55.85-1.31 55.86-2.75Q55.87-4.20 56.72-6.26Q57.57-8.32 58.86-10.64L58.86-10.64Q60.97-14.43 63.07-17.75L63.07-17.75L62.33-17.66Q60.07-17.40 59.70-17.40L59.70-17.40L59.52-17.40Q58.95-17.40 58.43-17.63Q57.90-17.85 57.90-18.18Q57.90-18.52 58.18-18.83Q58.47-19.14 58.52-19.32L58.52-19.32Q58.66-19.75 59.55-20.27Q60.44-20.80 60.89-20.83Q61.34-20.86 61.76-20.88Q62.18-20.90 62.69-20.92Q63.21-20.94 63.49-20.96L63.49-20.96L65.24-21.04Q66.88-23.50 67.50-24.20Q68.11-24.90 68.21-24.97Q68.31-25.04 68.60-25.04L68.60-25.04Z M78.51-14.61L78.51-14.61Q78.51-13.32 77.47-12.34Q76.42-11.37 75.10-11.37L75.10-11.37Q74.67-11.37 74.53-11.57Q74.39-11.78 74.39-12.11Q74.39-12.44 74.47-12.75L74.47-12.75Q73.77-12.52 72.91-12.03Q72.05-11.54 70.80-10.59Q69.55-9.63 69.55-9.16L69.55-9.16Q69.55-9.00 70.01-9.00Q70.47-9.00 71.42-9.33Q72.38-9.65 72.76-9.65Q73.14-9.65 73.26-9.61L73.26-9.61Q73.51-9.47 73.81-9.01Q74.10-8.55 74.10-8.29Q74.10-8.03 73.59-7.60Q73.08-7.17 72.44-6.94Q71.80-6.72 71.58-6.60L71.58-6.60Q67.46-4.30 67.46-3.44L67.46-3.44Q67.46-1.91 70.06-1.91L70.06-1.91Q71.72-1.91 73.40-2.97L73.40-2.97Q74.82-3.87 75.97-4.79Q77.11-5.72 77.41-5.94Q77.71-6.15 77.87-6.15L77.87-6.15Q78.38-6.15 78.38-5.02Q78.38-3.89 78.24-3.53Q78.10-3.16 77.46-2.64L77.46-2.64Q73.28 0.76 69.55 0.76L69.55 0.76Q67.56 0.76 66.37 0.21L66.37 0.21Q64.18-0.78 64.18-2.83L64.18-2.83Q64.18-5.53 67.91-6.91L67.91-6.91Q67.17-7.25 66.95-7.76Q66.74-8.28 66.74-9.42Q66.74-10.57 67.80-11.85Q68.87-13.13 70.41-13.95L70.41-13.95Q73.85-15.80 76.54-15.80L76.54-15.80Q77.19-15.80 77.85-15.49Q78.51-15.18 78.51-14.61Z M99.39-25.04L100.31-25.16L101.11-24.96Q101.29-24.96 101.42-24.79Q101.56-24.61 101.56-24.45Q101.56-24.30 101.15-23.61Q100.74-22.93 100.18-22.06Q99.63-21.19 99.59-21.11L99.59-21.11Q101.11-21.23 101.75-21.23Q102.38-21.23 102.61-21.14Q102.85-21.05 103.15-20.65Q103.45-20.25 103.71-20.05Q103.96-19.84 103.96-19.43Q103.96-19.02 103.46-18.74Q102.97-18.46 102.40-18.40L102.40-18.40Q97.87-17.95 97.40-17.93L97.40-17.93Q95.82-15.51 92.98-10.38Q90.13-5.25 89.96-3.96L89.96-3.96Q89.88-3.38 89.88-3.01L89.88-3.01Q89.88-2.25 90.68-2.25Q91.48-2.25 92.46-2.86Q93.44-3.48 94.26-4.20L94.26-4.20Q96.44-6.15 96.60-6.15L96.60-6.15Q97.11-6.15 97.11-4.39L97.11-4.39Q97.11-3.44 96.23-2.68L96.23-2.68Q94.26-0.98 92.91-0.12Q91.56 0.74 90.21 0.74L90.21 0.74Q89.92 0.74 89.67 0.68L89.67 0.68Q88.10 0.39 87.37-0.46Q86.64-1.31 86.65-2.75Q86.66-4.20 87.51-6.26Q88.36-8.32 89.65-10.64L89.65-10.64Q91.76-14.43 93.86-17.75L93.86-17.75L93.12-17.66Q90.86-17.40 90.49-17.40L90.49-17.40L90.31-17.40Q89.74-17.40 89.22-17.63Q88.69-17.85 88.69-18.18Q88.69-18.52 88.97-18.83Q89.26-19.14 89.31-19.32L89.31-19.32Q89.45-19.75 90.34-20.27Q91.23-20.80 91.68-20.83Q92.13-20.86 92.55-20.88Q92.97-20.90 93.48-20.92Q94.00-20.94 94.28-20.96L94.28-20.96L96.03-21.04Q97.67-23.50 98.29-24.20Q98.90-24.90 99.00-24.97Q99.10-25.04 99.39-25.04L99.39-25.04Z M113.05-5.76L113.05-5.76Q113.19-4.86 113.19-4.35Q113.19-3.83 113.01-3.45Q112.82-3.07 112.18-2.37Q111.55-1.68 110.67-0.98L110.67-0.98Q108.52 0.72 106.28 0.72L106.28 0.72Q103.05 0.72 103.05-2.13L103.05-2.13Q103.05-4.61 107.37-12.01L107.37-12.01Q107.53-12.29 107.59-12.40L107.59-12.40Q106.08-11.35 101.83-6.65Q97.59-1.95 96.18 0L96.18 0Q96.06 0.18 95.59 0.39Q95.12 0.61 94.86 0.61Q94.60 0.61 94.29 0.44Q93.99 0.27 93.91 0.27L93.91 0.27Q93.66 0.27 93.66 0.11Q93.66-0.06 94.35-1.69Q95.05-3.32 96.18-5.74L96.18-5.74Q99.28-12.42 105.42-23.13L105.42-23.13Q107.57-26.88 108.78-28.44L108.78-28.44Q109.64-29.55 111.67-29.55L111.67-29.55Q112.10-29.55 112.16-29.30Q112.21-29.04 112.21-28.75Q112.21-28.46 112.10-28.16L112.10-28.16L110.01-24.90Q103.80-15.21 100.65-8.85L100.65-8.85Q103.70-12.56 106.57-14.57L106.57-14.57Q108.35-15.84 109.24-15.84Q110.12-15.84 110.85-15.56Q111.57-15.27 111.57-14.20L111.57-14.20Q111.57-13.81 110.30-11.31L110.30-11.31Q106.49-3.81 106.49-2.98Q106.49-2.15 107.18-2.15L107.18-2.15Q108.17-2.15 110.24-4.08L110.24-4.08Q111.80-5.55 112.21-5.96L112.21-5.96Q112.45-6.13 112.64-6.13L112.64-6.13Q113.01-6.13 113.05-5.76Z M125.43-14.61L125.43-14.61Q125.43-13.32 124.38-12.34Q123.34-11.37 122.01-11.37L122.01-11.37Q121.58-11.37 121.44-11.57Q121.31-11.78 121.31-12.11Q121.31-12.44 121.38-12.75L121.38-12.75Q120.68-12.52 119.82-12.03Q118.96-11.54 117.71-10.59Q116.46-9.63 116.46-9.16L116.46-9.16Q116.46-9.00 116.92-9.00Q117.38-9.00 118.34-9.33Q119.29-9.65 119.67-9.65Q120.06-9.65 120.17-9.61L120.17-9.61Q120.43-9.47 120.72-9.01Q121.01-8.55 121.01-8.29Q121.01-8.03 120.50-7.60Q120.00-7.17 119.35-6.94Q118.71-6.72 118.49-6.60L118.49-6.60Q114.37-4.30 114.37-3.44L114.37-3.44Q114.37-1.91 116.97-1.91L116.97-1.91Q118.63-1.91 120.31-2.97L120.31-2.97Q121.74-3.87 122.88-4.79Q124.02-5.72 124.32-5.94Q124.63-6.15 124.78-6.15L124.78-6.15Q125.29-6.15 125.29-5.02Q125.29-3.89 125.15-3.53Q125.02-3.16 124.37-2.64L124.37-2.64Q120.19 0.76 116.46 0.76L116.46 0.76Q114.47 0.76 113.28 0.21L113.28 0.21Q111.09-0.78 111.09-2.83L111.09-2.83Q111.09-5.53 114.82-6.91L114.82-6.91Q114.08-7.25 113.86-7.76Q113.65-8.28 113.65-9.42Q113.65-10.57 114.71-11.85Q115.78-13.13 117.32-13.95L117.32-13.95Q120.76-15.80 123.45-15.80L123.45-15.80Q124.10-15.80 124.76-15.49Q125.43-15.18 125.43-14.61Z M141.97-19.14L141.97-19.14L141.56-19.20L141.48-19.20Q140.99-19.20 140.47-19.59Q139.96-19.98 139.96-20.98Q139.96-21.97 141.04-23.24Q142.13-24.51 143.98-25.58Q145.84-26.64 148.60-27.32Q151.36-28.01 154.43-28.01L154.43-28.01Q160.70-28.01 164.22-25.54Q167.75-23.07 167.75-19.12L167.75-19.12Q167.75-16.66 166.66-14.20Q165.56-11.74 163.73-9.66Q161.89-7.58 159.41-5.77Q156.93-3.96 154.21-2.70L154.21-2.70Q148.36 0 143.00 0L143.00 0Q140.37 0 139.68-0.43L139.68-0.43Q139.43-0.57 139.19-0.85Q138.94-1.13 138.80-1.23L138.80-1.23Q138.43-1.46 138.43-2.24Q138.43-3.01 138.59-3.63L138.59-3.63Q139.18-5.72 143.85-12.71Q148.53-19.69 151.68-23.96L151.68-23.96Q151.89-24.26 153.88-24.39L153.88-24.39Q154.70-24.39 155.02-24.28Q155.33-24.16 155.33-23.86Q155.33-23.55 154.31-22.14Q153.30-20.72 147.79-12.24Q142.28-3.75 142.28-3.52Q142.28-3.28 144.01-3.28Q145.74-3.28 148.27-4.01Q150.80-4.75 153.02-5.94Q155.25-7.13 157.28-8.70Q159.31-10.27 160.76-11.91L160.76-11.91Q163.92-15.51 163.92-18.30Q163.92-21.09 161.37-23.05Q158.82-25 154.39-25L154.39-25Q151.40-25 148.75-24.00Q146.09-23.01 145.09-22.23Q144.10-21.45 144.10-21.17L144.10-21.17Q144.10-21.02 144.33-21.02L144.33-21.02L145.17-21.17Q145.35-21.17 145.35-21.09Q145.35-21.02 145.02-20.82Q144.68-20.63 144.48-20.40Q144.27-20.18 143.45-19.68Q142.63-19.18 141.97-19.14Z M178.29-21.45L178.29-21.45Q178.29-20.33 177.25-19.21Q176.22-18.09 175.09-18.09Q173.97-18.09 173.97-19.26Q173.97-20.43 174.96-21.49Q175.94-22.56 177.13-22.56L177.13-22.56Q177.66-22.56 177.97-22.27Q178.29-21.97 178.29-21.45ZM175.12-4.39L175.12-4.39Q175.12-3.81 175.01-3.55L175.01-3.55Q174.05-1.60 171.96-0.40Q169.87 0.80 168.33 0.80Q166.78 0.80 165.67-0.23Q164.56-1.27 164.56-2.34Q164.56-3.42 165.63-5.47Q166.70-7.52 167.78-9.26Q168.85-11.00 168.85-11.14Q168.85-11.29 168.45-11.72Q168.05-12.15 168.05-12.35Q168.05-12.56 168.86-13.43Q169.67-14.30 170.84-15.15Q172.00-16.00 172.61-16.00Q173.23-16.00 173.72-15.45Q174.20-14.90 174.20-14.45Q174.20-14.00 169.56-6.00L169.56-6.00Q169.50-5.88 169.23-5.48Q168.97-5.08 168.82-4.81Q168.68-4.55 168.48-4.18L168.48-4.18Q168.09-3.40 168.09-2.87L168.09-2.87Q168.09-2.21 168.99-2.21Q169.89-2.21 170.86-2.82Q171.82-3.44 172.53-4.18L172.53-4.18Q174.36-6.15 174.61-6.15L174.61-6.15Q175.12-6.15 175.12-4.39Z M172.98-6.29L172.98-6.29L172.83-6.84Q172.83-6.99 172.98-7.10Q173.14-7.21 173.38-7.54Q173.63-7.87 173.74-7.97Q173.84-8.07 174.05-8.25Q174.25-8.44 174.39-8.55L174.39-8.55Q174.78-8.89 174.94-8.94Q175.09-8.98 175.48-9.10L175.48-9.10Q176.69-9.49 177.53-9.65L177.53-9.65Q182.51-17.97 185.53-22.67Q188.55-27.36 188.97-27.86Q189.39-28.36 190.46-28.75Q191.54-29.14 192.04-29.13Q192.53-29.12 192.53-28.69L192.53-28.69Q192.53-28.52 192.41-28.22Q192.28-27.93 190.27-24.77L190.27-24.77Q182.83-13.11 180.74-9.65L180.74-9.65L181.23-9.47Q185.76-10.31 185.94-10.31Q186.13-10.31 186.88-10.05Q187.63-9.79 187.87-9.75L187.87-9.75Q188.32-9.67 188.32-9.01Q188.32-8.36 187.91-8.28L187.91-8.28Q187.57-8.22 186.31-7.90Q185.05-7.58 184.29-7.40L184.29-7.40Q185.33-6.17 185.33-4.79Q185.33-3.40 184.10-1.12Q182.87 1.15 180.95 3.38Q179.04 5.61 176.94 7.58Q174.84 9.55 172.91 10.77Q170.97 11.99 170.04 11.99Q169.12 11.99 168.38 11.49Q167.65 11.00 167.65 10.02Q167.65 9.04 168.05 7.74Q168.45 6.45 168.92 5.36Q169.39 4.28 170.52 2.25L170.52 2.25Q171.73 0.06 174.90-5.23L174.90-5.23Q174.35-5.14 174.06-5.14Q173.76-5.14 173.51-5.27Q173.26-5.41 173.16-5.63L173.16-5.63Q172.98-6.02 172.98-6.29ZM178.48 2.13Q179.94 0.43 180.93-1.44Q181.93-3.30 181.93-4.48Q181.93-5.66 180.78-6.56L180.78-6.56L178.61-6.07Q178.28-5.53 177.58-4.35Q176.89-3.16 176.45-2.42Q176.01-1.68 175.33-0.51Q174.64 0.66 174.18 1.46Q173.73 2.27 173.17 3.27Q172.61 4.28 172.25 4.99Q171.89 5.70 171.56 6.41L171.56 6.41Q170.91 7.77 170.91 8.18Q170.91 8.59 171.13 8.59L171.13 8.59Q171.52 8.59 172.74 7.71Q173.96 6.82 175.49 5.32Q177.03 3.83 178.48 2.13Z M187.78-6.29L187.78-6.29L187.62-6.84Q187.62-6.99 187.78-7.10Q187.93-7.21 188.18-7.54Q188.42-7.87 188.53-7.97Q188.64-8.07 188.84-8.25Q189.05-8.44 189.18-8.55L189.18-8.55Q189.58-8.89 189.73-8.94Q189.89-8.98 190.28-9.10L190.28-9.10Q191.49-9.49 192.33-9.65L192.33-9.65Q197.31-17.97 200.33-22.67Q203.34-27.36 203.76-27.86Q204.18-28.36 205.26-28.75Q206.33-29.14 206.83-29.13Q207.33-29.12 207.33-28.69L207.33-28.69Q207.33-28.52 207.20-28.22Q207.08-27.93 205.06-24.77L205.06-24.77Q197.62-13.11 195.53-9.65L195.53-9.65L196.02-9.47Q200.55-10.31 200.74-10.31Q200.92-10.31 201.67-10.05Q202.43-9.79 202.66-9.75L202.66-9.75Q203.11-9.67 203.11-9.01Q203.11-8.36 202.70-8.28L202.70-8.28Q202.37-8.22 201.11-7.90Q199.85-7.58 199.09-7.40L199.09-7.40Q200.12-6.17 200.12-4.79Q200.12-3.40 198.89-1.12Q197.66 1.15 195.75 3.38Q193.83 5.61 191.73 7.58Q189.63 9.55 187.70 10.77Q185.77 11.99 184.84 11.99Q183.91 11.99 183.18 11.49Q182.45 11.00 182.45 10.02Q182.45 9.04 182.85 7.74Q183.25 6.45 183.72 5.36Q184.18 4.28 185.32 2.25L185.32 2.25Q186.53 0.06 189.69-5.23L189.69-5.23Q189.15-5.14 188.85-5.14Q188.56-5.14 188.31-5.27Q188.05-5.41 187.95-5.63L187.95-5.63Q187.78-6.02 187.78-6.29ZM193.28 2.13Q194.73 0.43 195.73-1.44Q196.72-3.30 196.72-4.48Q196.72-5.66 195.57-6.56L195.57-6.56L193.40-6.07Q193.07-5.53 192.38-4.35Q191.68-3.16 191.24-2.42Q190.81-1.68 190.12-0.51Q189.44 0.66 188.98 1.46Q188.52 2.27 187.96 3.27Q187.41 4.28 187.05 4.99Q186.68 5.70 186.35 6.41L186.35 6.41Q185.71 7.77 185.71 8.18Q185.71 8.59 185.92 8.59L185.92 8.59Q186.31 8.59 187.53 7.71Q188.75 6.82 190.29 5.32Q191.82 3.83 193.28 2.13Z M217.10-14.61L217.10-14.61Q217.10-13.32 216.06-12.34Q215.01-11.37 213.69-11.37L213.69-11.37Q213.26-11.37 213.12-11.57Q212.98-11.78 212.98-12.11Q212.98-12.44 213.06-12.75L213.06-12.75Q212.36-12.52 211.50-12.03Q210.64-11.54 209.39-10.59Q208.14-9.63 208.14-9.16L208.14-9.16Q208.14-9.00 208.60-9.00Q209.06-9.00 210.01-9.33Q210.97-9.65 211.35-9.65Q211.73-9.65 211.85-9.61L211.85-9.61Q212.10-9.47 212.40-9.01Q212.69-8.55 212.69-8.29Q212.69-8.03 212.18-7.60Q211.67-7.17 211.03-6.94Q210.39-6.72 210.17-6.60L210.17-6.60Q206.05-4.30 206.05-3.44L206.05-3.44Q206.05-1.91 208.65-1.91L208.65-1.91Q210.31-1.91 211.99-2.97L211.99-2.97Q213.41-3.87 214.56-4.79Q215.70-5.72 216.00-5.94Q216.30-6.15 216.46-6.15L216.46-6.15Q216.97-6.15 216.97-5.02Q216.97-3.89 216.83-3.53Q216.69-3.16 216.05-2.64L216.05-2.64Q211.87 0.76 208.14 0.76L208.14 0.76Q206.15 0.76 204.96 0.21L204.96 0.21Q202.77-0.78 202.77-2.83L202.77-2.83Q202.77-5.53 206.50-6.91L206.50-6.91Q205.76-7.25 205.54-7.76Q205.33-8.28 205.33-9.42Q205.33-10.57 206.39-11.85Q207.46-13.13 209.00-13.95L209.00-13.95Q212.44-15.80 215.13-15.80L215.13-15.80Q215.78-15.80 216.44-15.49Q217.10-15.18 217.10-14.61Z M223.97-11.88L223.15-10.64Q227.76-15.88 231.00-15.88L231.00-15.88Q231.80-15.88 232.32-15.40Q232.84-14.92 232.84-14.16Q232.84-13.40 231.75-11.61Q230.67-9.82 229.75-8.59L229.75-8.59Q229.26-7.97 228.65-7.97Q228.03-7.97 227.69-8.42Q227.35-8.87 227.35-9.47L227.35-9.47Q227.35-10.82 228.79-12.52L228.79-12.52L228.75-12.56Q228.11-12.50 225.56-10.02Q223.01-7.54 221.22-5.58Q219.44-3.61 217.35-0.80L217.35-0.80Q216.74 0.04 216.32 0.04Q215.90 0.04 215.21-0.22Q214.52-0.49 214.37-0.61Q214.22-0.72 214.22-1.00Q214.22-1.27 214.38-1.63Q214.54-1.99 214.96-2.66Q215.38-3.32 216.22-4.80Q217.07-6.29 218.87-9.30Q220.67-12.30 221.02-12.93L221.02-12.93Q221.76-14.22 222.23-14.80L222.23-14.80Q223.11-15.92 225.20-15.92L225.20-15.92Q225.67-15.92 225.67-15.33L225.67-15.33Q225.67-14.41 223.97-11.88L223.97-11.88Z M244.56-14.61L244.56-14.61Q244.56-13.32 243.52-12.34Q242.47-11.37 241.15-11.37L241.15-11.37Q240.72-11.37 240.58-11.57Q240.44-11.78 240.44-12.11Q240.44-12.44 240.52-12.75L240.52-12.75Q239.82-12.52 238.96-12.03Q238.10-11.54 236.85-10.59Q235.60-9.63 235.60-9.16L235.60-9.16Q235.60-9.00 236.06-9.00Q236.52-9.00 237.47-9.33Q238.43-9.65 238.81-9.65Q239.19-9.65 239.31-9.61L239.31-9.61Q239.56-9.47 239.86-9.01Q240.15-8.55 240.15-8.29Q240.15-8.03 239.64-7.60Q239.13-7.17 238.49-6.94Q237.85-6.72 237.63-6.60L237.63-6.60Q233.51-4.30 233.51-3.44L233.51-3.44Q233.51-1.91 236.11-1.91L236.11-1.91Q237.77-1.91 239.45-2.97L239.45-2.97Q240.87-3.87 242.02-4.79Q243.16-5.72 243.46-5.94Q243.76-6.15 243.92-6.15L243.92-6.15Q244.43-6.15 244.43-5.02Q244.43-3.89 244.29-3.53Q244.15-3.16 243.51-2.64L243.51-2.64Q239.33 0.76 235.60 0.76L235.60 0.76Q233.61 0.76 232.42 0.21L232.42 0.21Q230.23-0.78 230.23-2.83L230.23-2.83Q230.23-5.53 233.96-6.91L233.96-6.91Q233.22-7.25 233.00-7.76Q232.79-8.28 232.79-9.42Q232.79-10.57 233.85-11.85Q234.92-13.13 236.46-13.95L236.46-13.95Q239.90-15.80 242.59-15.80L242.59-15.80Q243.24-15.80 243.90-15.49Q244.56-15.18 244.56-14.61Z M254.42-3.01L254.42-3.01Q254.42-2.15 255.59-2.15L255.59-2.15Q256.21-2.15 257.16-2.77Q258.11-3.40 258.87-4.14L258.87-4.14Q260.90-6.15 261.18-6.15L261.18-6.15Q261.68-6.15 261.68-4.69Q261.68-3.22 260.76-2.68L260.76-2.68Q257.97-0.16 256.45 0.39L256.45 0.39Q255.59 0.68 254.55 0.66Q253.52 0.64 252.50-0.23Q251.49-1.11 251.49-2.37Q251.49-3.63 252.15-5.23Q252.82-6.84 253.51-7.98Q254.20-9.12 255.22-10.63Q256.23-12.15 256.29-12.52L256.29-12.52L256.25-12.56Q255.61-12.50 253.06-10.02Q250.51-7.54 248.85-5.70Q247.19-3.87 244.89-0.80L244.89-0.80Q244.24 0.04 243.83 0.04Q243.42 0.04 242.73-0.22Q242.03-0.49 241.88-0.61Q241.72-0.72 241.72-0.96Q241.72-1.19 241.86-1.53Q242.00-1.88 242.12-2.10Q242.25-2.32 242.54-2.79Q242.84-3.26 243.70-4.78Q244.57-6.29 246.37-9.30Q248.17-12.30 248.52-12.93L248.52-12.93Q249.26-14.22 249.73-14.80L249.73-14.80Q250.61-15.92 252.70-15.92L252.70-15.92Q253.17-15.92 253.17-15.33L253.17-15.33Q253.17-14.41 251.47-11.88L251.47-11.88L250.65-10.64Q254.03-14.39 256.35-15.39L256.35-15.39Q257.48-15.88 258.39-15.88Q259.30-15.88 259.84-15.39Q260.37-14.90 260.37-14.31Q260.37-13.71 259.96-12.88Q259.55-12.05 259.13-11.40Q258.71-10.74 258.03-9.75Q257.35-8.75 257.29-8.66Q257.23-8.57 256.99-8.19Q256.74-7.81 256.62-7.64Q256.51-7.46 256.23-7.02Q255.96-6.58 255.79-6.29Q255.63-6.00 255.38-5.57Q255.14-5.14 254.99-4.82Q254.85-4.51 254.69-4.14L254.69-4.14Q254.42-3.46 254.42-3.01Z M272.95-4.34Q273.96-4.98 274.25-5.22Q274.54-5.47 274.93-5.80Q275.33-6.13 275.58-6.13L275.58-6.13Q275.97-6.13 275.97-5.24Q275.97-4.36 275.10-3.33Q274.23-2.30 272.94-1.59Q271.65-0.88 270.19-0.35L270.19-0.35Q267.28 0.72 265.24 0.72Q263.20 0.72 261.56-0.62Q259.91-1.95 259.91-4.11Q259.91-6.27 260.99-8.43Q262.06-10.59 263.75-12.22Q265.44-13.85 267.68-14.86Q269.91-15.88 272.10-15.88L272.10-15.88Q273.16-15.88 274.00-15.27Q274.84-14.67 274.84-13.61Q274.84-12.56 273.79-11.08Q272.75-9.61 271.67-9.61L271.67-9.61Q270.42-9.61 270.42-10.80L270.42-10.80Q270.42-11.11 271.01-11.91Q271.59-12.71 271.59-13.00Q271.59-13.28 271.38-13.28L271.38-13.28Q270.31-13.28 269.08-12.54Q267.84-11.80 266.84-10.98Q265.83-10.16 264.93-9.14L264.93-9.14Q262.98-6.93 262.98-4.55L262.98-4.55Q262.98-3.59 263.60-2.90Q264.21-2.21 265.67-2.21Q267.12-2.21 268.59-2.55Q270.05-2.89 271.00-3.29Q271.95-3.69 272.95-4.34Z M288.67-14.61L288.67-14.61Q288.67-13.32 287.63-12.34Q286.58-11.37 285.26-11.37L285.26-11.37Q284.83-11.37 284.69-11.57Q284.55-11.78 284.55-12.11Q284.55-12.44 284.63-12.75L284.63-12.75Q283.93-12.52 283.07-12.03Q282.21-11.54 280.96-10.59Q279.71-9.63 279.71-9.16L279.71-9.16Q279.71-9.00 280.17-9.00Q280.63-9.00 281.58-9.33Q282.54-9.65 282.92-9.65Q283.30-9.65 283.42-9.61L283.42-9.61Q283.67-9.47 283.97-9.01Q284.26-8.55 284.26-8.29Q284.26-8.03 283.75-7.60Q283.24-7.17 282.60-6.94Q281.96-6.72 281.74-6.60L281.74-6.60Q277.62-4.30 277.62-3.44L277.62-3.44Q277.62-1.91 280.22-1.91L280.22-1.91Q281.88-1.91 283.56-2.97L283.56-2.97Q284.98-3.87 286.13-4.79Q287.27-5.72 287.57-5.94Q287.87-6.15 288.03-6.15L288.03-6.15Q288.54-6.15 288.54-5.02Q288.54-3.89 288.40-3.53Q288.26-3.16 287.62-2.64L287.62-2.64Q283.44 0.76 279.71 0.76L279.71 0.76Q277.72 0.76 276.53 0.21L276.53 0.21Q274.34-0.78 274.34-2.83L274.34-2.83Q274.34-5.53 278.07-6.91L278.07-6.91Q277.33-7.25 277.11-7.76Q276.90-8.28 276.90-9.42Q276.90-10.57 277.96-11.85Q279.03-13.13 280.57-13.95L280.57-13.95Q284.01-15.80 286.70-15.80L286.70-15.80Q287.35-15.80 288.01-15.49Q288.67-15.18 288.67-14.61Z M290.05-0.20Q290.05-1.39 290.99-2.31Q291.93-3.24 292.82-3.24L292.82-3.24Q294.45-3.24 294.45-1.91L294.45-1.91Q294.45-0.82 293.53 0.21Q292.61 1.23 291.46 1.23L291.46 1.23Q290.05 1.23 290.05-0.20L290.05-0.20Z"/></g>
</svg>
</g><g opacity="1" transform="rotate(0 493.2828 427.7055)">
<svg width="382.0165" height="50" x="493.2828" y="427.7055" version="1.1" preserveAspectRatio="none" viewBox="0.92 -29.4 227.68000000000004 29.8">
  <g transform="matrix(1 0 0 1 0 0)" class="companyName"><path id="id-D6z1nYkh11" d="M6.92-23.16L6.92-20L13.96-20L13.96-18.28L6.92-18.28L6.92 0L4.92 0L4.92-18.28L0.92-18.28L0.92-20L4.92-20L4.92-23.36Q4.92-26.16 6.48-27.78Q8.04-29.40 10.88-29.40L10.88-29.40Q13.04-29.40 14.12-28.32L14.12-28.32L13.56-26.72Q12.56-27.60 11.04-27.60L11.04-27.60Q9.08-27.60 8-26.46Q6.92-25.32 6.92-23.16L6.92-23.16Z M25.28-20.40Q29.72-20.40 32.26-17.62Q34.80-14.84 34.80-10L34.80-10Q34.80-5.16 32.26-2.38Q29.72 0.40 25.28 0.40L25.28 0.40Q20.84 0.40 18.30-2.38Q15.76-5.16 15.76-10L15.76-10Q15.76-14.84 18.30-17.62Q20.84-20.40 25.28-20.40L25.28-20.40ZM25.28-18.68Q21.76-18.68 19.76-16.36Q17.76-14.04 17.76-10L17.76-10Q17.76-5.96 19.76-3.64Q21.76-1.32 25.28-1.32L25.28-1.32Q28.80-1.32 30.80-3.64Q32.80-5.96 32.80-10L32.80-10Q32.80-14.04 30.80-16.36Q28.80-18.68 25.28-18.68L25.28-18.68Z M48.88-20.40Q53.32-20.40 55.86-17.62Q58.40-14.84 58.40-10L58.40-10Q58.40-5.16 55.86-2.38Q53.32 0.40 48.88 0.40L48.88 0.40Q44.44 0.40 41.90-2.38Q39.36-5.16 39.36-10L39.36-10Q39.36-14.84 41.90-17.62Q44.44-20.40 48.88-20.40L48.88-20.40ZM48.88-18.68Q45.36-18.68 43.36-16.36Q41.36-14.04 41.36-10L41.36-10Q41.36-5.96 43.36-3.64Q45.36-1.32 48.88-1.32L48.88-1.32Q52.40-1.32 54.40-3.64Q56.40-5.96 56.40-10L56.40-10Q56.40-14.04 54.40-16.36Q52.40-18.68 48.88-18.68L48.88-18.68Z M79.48-29.20L81.48-29.20L81.48 0L79.68 0L79.56-4.48Q78.72-2.20 76.76-0.90Q74.80 0.40 72.12 0.40L72.12 0.40Q67.88 0.40 65.42-2.36Q62.96-5.12 62.96-10L62.96-10Q62.96-14.88 65.42-17.64Q67.88-20.40 72.12-20.40L72.12-20.40Q74.72-20.40 76.64-19.16Q78.56-17.92 79.48-15.76L79.48-15.76L79.48-29.20ZM72.36-1.36Q75.48-1.36 77.40-3.46Q79.32-5.56 79.48-9.16L79.48-9.16L79.48-10.84Q79.28-14.44 77.38-16.54Q75.48-18.64 72.36-18.64L72.36-18.64Q68.88-18.64 66.92-16.34Q64.96-14.04 64.96-10L64.96-10Q64.96-5.96 66.92-3.66Q68.88-1.36 72.36-1.36L72.36-1.36Z M117.20-1.32Q118.20-1.32 118.76-1.60L118.76-1.60L118.64 0Q117.92 0.40 116.68 0.40L116.68 0.40Q115.28 0.40 114.40-0.36Q113.52-1.12 113.40-3L113.40-3Q112.48-1.40 110.44-0.50Q108.40 0.40 106.16 0.40L106.16 0.40Q103.20 0.40 101.42-0.92Q99.64-2.24 99.64-4.68L99.64-4.68Q99.64-9.32 107.24-10.68L107.24-10.68L113.36-11.76L113.36-13.52Q113.36-15.92 111.94-17.28Q110.52-18.64 107.92-18.64L107.92-18.64Q103.16-18.64 101.52-14.40L101.52-14.40L100.00-15.52Q100.88-17.88 102.92-19.14Q104.96-20.40 107.92-20.40L107.92-20.40Q111.40-20.40 113.38-18.70Q115.36-17 115.36-13.76L115.36-13.76L115.36-3.44Q115.36-1.32 117.20-1.32L117.20-1.32ZM106.36-1.36Q108.04-1.36 109.64-1.94Q111.24-2.52 112.30-3.66Q113.36-4.80 113.36-6.40L113.36-6.40L113.36-10.12L107.88-9.12Q104.64-8.52 103.16-7.44Q101.68-6.36 101.68-4.68L101.68-4.68Q101.68-3.08 102.92-2.22Q104.16-1.36 106.36-1.36L106.36-1.36Z M135.88-20L138.00-20L129.64 0L127.64 0L119.28-20L121.52-20L128.68-2.04L135.88-20Z M158.60-10.48Q158.60-9.80 158.52-9.16L158.52-9.16L142.64-9.16Q142.84-5.48 144.82-3.42Q146.80-1.36 150.12-1.36L150.12-1.36Q152.48-1.36 154.18-2.32Q155.88-3.28 156.64-5.04L156.64-5.04L158.32-4.16Q157.20-1.96 155.12-0.78Q153.04 0.40 150.12 0.40L150.12 0.40Q145.68 0.40 143.18-2.36Q140.68-5.12 140.68-10L140.68-10Q140.68-14.88 143.10-17.64Q145.52-20.40 149.88-20.40L149.88-20.40Q153.96-20.40 156.28-17.68Q158.60-14.96 158.60-10.48L158.60-10.48ZM149.88-18.64Q146.64-18.64 144.76-16.62Q142.88-14.60 142.64-10.96L142.64-10.96L156.72-10.96Q156.52-14.56 154.74-16.60Q152.96-18.64 149.88-18.64L149.88-18.64Z M173.68-20.40Q177.12-20.40 179.22-18.48Q181.32-16.56 181.32-12.96L181.32-12.96L181.32 0L179.32 0L179.32-12.32Q179.32-15.52 177.76-17.08Q176.20-18.64 173.48-18.64L173.48-18.64Q171.56-18.64 169.92-17.76Q168.28-16.88 167.30-15.20Q166.32-13.52 166.32-11.28L166.32-11.28L166.32 0L164.32 0L164.32-20L166.12-20L166.20-15.96Q167.16-18.12 169.14-19.26Q171.12-20.40 173.68-20.40L173.68-20.40Z M202.84-20L204.84-20L204.84 0L203.04 0L202.96-3.96Q201.96-1.84 199.96-0.72Q197.96 0.40 195.24 0.40L195.24 0.40Q191.96 0.40 190-1.42Q188.04-3.24 188.04-6.80L188.04-6.80L188.04-20L190.04-20L190.04-7.28Q190.04-1.36 195.56-1.36L195.56-1.36Q197.76-1.36 199.42-2.32Q201.08-3.28 201.96-4.92Q202.84-6.56 202.84-8.52L202.84-8.52L202.84-20Z M228.60-10.48Q228.60-9.80 228.52-9.16L228.52-9.16L212.64-9.16Q212.84-5.48 214.82-3.42Q216.80-1.36 220.12-1.36L220.12-1.36Q222.48-1.36 224.18-2.32Q225.88-3.28 226.64-5.04L226.64-5.04L228.32-4.16Q227.20-1.96 225.12-0.78Q223.04 0.40 220.12 0.40L220.12 0.40Q215.68 0.40 213.18-2.36Q210.68-5.12 210.68-10L210.68-10Q210.68-14.88 213.10-17.64Q215.52-20.40 219.88-20.40L219.88-20.40Q223.96-20.40 226.28-17.68Q228.60-14.96 228.60-10.48L228.60-10.48ZM219.88-18.64Q216.64-18.64 214.76-16.62Q212.88-14.60 212.64-10.96L212.64-10.96L226.72-10.96Q226.52-14.56 224.74-16.60Q222.96-18.64 219.88-18.64L219.88-18.64Z"/></g>
</svg>
</g></svg></svg>